<svg width="512" height="512" viewBox="0 0 512 512" fill="none" xmlns="http://www.w3.org/2000/svg">
  <rect width="512" height="512" rx="96" fill="#0B1220"/>
  <circle cx="256" cy="256" r="144" fill="#0F2238" stroke="#C7F2FF" stroke-width="16"/>
  <g clip-path="url(#clip0)">
    <path d="M112 256H400" stroke="#6ED7F7" stroke-width="10"/>
    <path d="M132 198C188 216 324 216 380 198" stroke="#6ED7F7" stroke-width="10" stroke-linecap="round"/>
    <path d="M132 314C188 296 324 296 380 314" stroke="#6ED7F7" stroke-width="10" stroke-linecap="round"/>
    <path d="M256 112C228 148 212 200 212 256C212 312 228 364 256 400" stroke="#6ED7F7" stroke-width="10" stroke-linecap="round"/>
    <path d="M256 112C284 148 300 200 300 256C300 312 284 364 256 400" stroke="#6ED7F7" stroke-width="10" stroke-linecap="round"/>
    <path d="M160 150L208 192" stroke="#C7F2FF" stroke-width="14" stroke-linecap="round"/>
    <path d="M304 320L352 362" stroke="#C7F2FF" stroke-width="14" stroke-linecap="round"/>
    <path d="M318 166L360 214" stroke="#C7F2FF" stroke-width="14" stroke-linecap="round"/>
  </g>
  <defs>
    <clipPath id="clip0">
      <circle cx="256" cy="256" r="136"/>
    </clipPath>
  </defs>
</svg>
